# xmcd
#
# Track frame offsets:
#	150
#	4420
#	27904
#	43890
#	60832
#	78181
#	80245
#	109166
#	127169
#	148161
#	153076
#	173321
#	194492
#	196642
#
# Disc length: 3022 seconds
#
# Revision: 0
# Processed by: cddbd v1.5.2PL0 Copyright (c) Steve Scherf et al.
# Submitted via: EasyCDDAExtractor 16.0.1.1
#
DISCID=b30bcc0e
DTITLE=Mike Blakely - The Rarest Of The Breed
DYEAR=2008
DGENRE=Country
TTITLE0=The Rarest Of The Breed Prelude
TTITLE1=Blue In Kentucky
TTITLE2=Gettin' Over You
TTITLE3=This Time Of The Year
TTITLE4=Go Easy
TTITLE5=White Buffalo Intro
TTITLE6=The Last Wild Buffalo
TTITLE7=Dodgin' My Own Bullet
TTITLE8=Ridin' His Own Trail
TTITLE9=Cayuse Cimarron Intro
TTITLE10=Soy Cayuse Cimarron
TTITLE11=Cupid's Bow
TTITLE12=The Rarest Of The Breed Reprise
TTITLE13=A Slow Night In Tacoma
EXTD=
EXTT0=
EXTT1=
EXTT2=
EXTT3=
EXTT4=
EXTT5=
EXTT6=
EXTT7=
EXTT8=
EXTT9=
EXTT10=
EXTT11=
EXTT12=
EXTT13=
PLAYORDER=
